<svg version="1.1" xmlns="http://www.w3.org/2000/svg" viewBox="0 0 375.37443627489733 581">
  <!-- svg-source:excalidraw -->
  <defs>
    <style>
      @font-face {
        font-family: "Virgil";
        src: url("https://excalidraw.com/FG_Virgil.woff2");
      }
      @font-face {
        font-family: "Cascadia";
        src: url("https://excalidraw.com/Cascadia.woff2");
      }
    </style>
  </defs>
  <rect x="0" y="0" width="375.37443627489733" height="581" fill="#ffffff"></rect><g transform="translate(11.374436274897334 10) rotate(0 177 280.5)"><path d="M-0.03221035792780444 -0.6452787330481358 C104.16228683469234 0.5614714364221612, 208.93312845113527 -0.5811936235049923, 354.4010923049946 0.76712159442138 M-0.5634886985978875 0.5760811813709947 C94.24746768361994 0.9728761172139794, 189.03868392362241 1.6167677953363926, 353.53317192197017 0.0784494205111835 M353.66420574262736 0.4754023663699627 C352.0608580809571 207.68889922117816, 353.43676061448826 415.0639309575781, 353.54970142915846 560.6376869075 M353.7548069175333 0.28471624888479713 C352.17752776120227 194.8855181028135, 351.5968726751618 390.16178420539944, 353.71148667894306 561.3734792593866 M354.66122563319755 561.7046712784914 C229.32075523562702 560.1625592511158, 103.57198898048279 561.0875411151343, 0.9887166676668829 560.6079993481103 M354.1063146193553 560.770900499384 C230.13615360890893 563.1453276239558, 105.02972738717986 562.8455243099174, -0.6191562547002467 560.8131573643855 M-0.3788650028407574 560.807447873801 C0.148153619017452 410.8369694375433, -0.11237725809589033 259.8863754922524, 0.039517951756715776 0.37104924842715264 M-0.3871468607336283 561.0338855270296 C0.10595599006488926 356.2907274144702, 0.3786860663779081 151.8004993708804, -0.17890536226332188 0.05925818718969822" stroke="#000000" stroke-width="1" fill="none"></path></g><g transform="translate(81.37443627489733 264) rotate(0 112.5 48)"><path d="M0.08479604016149044 0.796182635305047 C88.34442294179652 -1.80562278392525, 173.10980495317278 -3.1475551904689816, 225.14542041695822 -1.337773010107398 M-0.38388797013014553 0.12715384774416685 C63.06706692188499 0.1406670742275864, 128.14888503344358 0.3345486576569229, 225.43220182453425 -0.8393599078271985 M224.89253354258835 0.48663428239524364 C223.61091344870627 31.825316269323224, 225.45442497052252 64.7575327258557, 224.51285082288086 96.82207128219306 M224.9504605969414 0.6834749588742852 C224.24568767186256 21.034622398950162, 223.82428906198592 39.876066202856606, 225.27272106613964 96.51858362648636 M225.35123540331304 97.26354532378924 C146.63381685985712 96.83088621598192, 66.5818482933299 96.44518495763154, 1.487310003498435 94.52818687295687 M225.7076930141266 96.55028490505237 C143.34875759073367 94.41776831027805, 62.07643976579046 93.53294678250133, 0.10352483967477083 96.20164794086284 M1.6105860490351915 96.59917297773063 C-0.661459270939231 61.45106136910617, 2.2457538805156947 24.2454832535237, 0.5274769682437181 1.8407340925186872 M0.5802944740280509 95.39455580804497 C0.283485217653215 75.64898367915302, 0.5705006855353714 56.61080996487289, 0.006312801502645016 0.7252413341775537" stroke="#000000" stroke-width="1" fill="none"></path></g><g transform="translate(158.37443627489733 303) rotate(0 29.5 12)"><text x="29.5" y="19" font-family="Cascadia, Segoe UI Emoji" font-size="20px" fill="#000000" text-anchor="middle" style="white-space: pre;" direction="ltr">Video</text></g><g><g transform="translate(201.37443627489733 11) rotate(0 2.537103030978585 125.97207886502149)"><path d="M0.08567648045718679 0.48938814885914317 C1.3360117923340569 42.13308144894739, 5.458840502362136 209.22915798115233, 6.402688158599358 250.80722589977086 M-1.3284820966422557 -0.29928701832890514 C-0.13513556049551867 41.44921301250656, 4.484145268882994 210.40554270947973, 5.48369282431684 252.24344474837184" stroke="#000000" stroke-width="1" fill="none"></path></g><g transform="translate(201.37443627489733 11) rotate(0 2.537103030978585 125.97207886502149)"><path d="M-4.687874383830566 224.42006017274775 C-3.315338530451034 229.13966413898672, -2.4414334440291583 236.87852813542705, 6.367679265735369 251.1529584621638 M-4.54427364894851 224.17113366450735 C-1.9821574171759098 234.80260406272714, 2.248483050879032 243.51345994579083, 5.935828835179727 251.30082511078567" stroke="#000000" stroke-width="1" fill="none"></path></g><g transform="translate(201.37443627489733 11) rotate(0 2.537103030978585 125.97207886502149)"><path d="M15.826451845343632 223.88862649969468 C12.928198935625254 228.73362239189393, 9.527129926045903 236.58323168704234, 6.367679265735369 251.1529584621638 M15.970052580225689 223.63969999145428 C11.209380036571977 234.5589651527029, 8.120018150024665 243.45944928358745, 5.935828835179727 251.30082511078567" stroke="#000000" stroke-width="1" fill="none"></path></g></g><g transform="translate(140.37443627489733 154.5) rotate(0 17.5 12)"><text x="0" y="19" font-family="Cascadia, Segoe UI Emoji" font-size="20px" fill="#000000" text-anchor="start" style="white-space: pre;" direction="ltr">Top</text></g><g><g transform="translate(12.374436274897334 313) rotate(0 32.09358233747071 -0.11951384114101415)"><path d="M0.00606635101139541 0.02882967106997958 C10.774330751970412 -0.24693830298880742, 54.6662613440305 -0.7319956370939812, 65.63705221898854 -0.8523372042924167 M-1.4498875440470875 -1.0016386969573796 C9.038694378603251 -1.1303171091961364, 53.4274296806939 0.46478344165409613, 64.49845917033032 0.7626110146753491" stroke="#000000" stroke-width="1" fill="none"></path></g><g transform="translate(12.374436274897334 313) rotate(0 32.09358233747071 -0.11951384114101415)"><path d="M36.04847076339423 9.531162624748344 C47.173333503856355 6.238038694507953, 58.42800395209974 3.889255127420279, 63.98656619781629 -0.8230652102269231 M35.55798990549295 9.529670872295195 C47.40801911389667 5.8185111578697075, 57.46989159374273 3.1934915542553055, 64.42245861304924 0.13971049981191763" stroke="#000000" stroke-width="1" fill="none"></path></g><g transform="translate(12.374436274897334 313) rotate(0 32.09358233747071 -0.11951384114101415)"><path d="M36.69059818979984 -10.97999713656445 C47.704971548060016 -6.363531056613069, 58.71202343685073 -0.8027570749286586, 63.98656619781629 -0.8230652102269231 M36.20011733189857 -10.981488889017598 C47.748776369189564 -6.67585681148504, 57.559482383998414 -1.2779898676431571, 64.42245861304924 0.13971049981191763" stroke="#000000" stroke-width="1" fill="none"></path></g></g><g transform="translate(23.374436274897334 267.5) rotate(0 23.5 12)"><text x="0" y="19" font-family="Cascadia, Segoe UI Emoji" font-size="20px" fill="#000000" text-anchor="start" style="white-space: pre;" direction="ltr">Left</text></g><g><g transform="translate(11.374436274897334 414) rotate(0 141.5999874790199 -2.599432240249598)"><path d="M0.055542593076825186 0.296510411426425 C47.07112551617125 -0.13354223060111203, 235.09181994286675 -2.9262045451750356, 282.2540699649602 -3.588721405342221 M-1.3744362748973071 -0.5934255679138005 C46.01380639400954 -1.3048880988049012, 237.29890654391917 -5.228885143169513, 284.5744112329371 -5.495374891925604" stroke="#000000" stroke-width="1" fill="none"></path></g><g transform="translate(11.374436274897334 414) rotate(0 141.5999874790199 -2.599432240249598)"><path d="M257.02575777216043 3.919704029140304 C266.0946972305583 1.8582378044123518, 274.7330084388719 0.379604174587735, 284.32621874565257 -5.994928604010493 M257.01397850575086 5.322735172500144 C262.6946871992718 3.726028972237187, 268.1746091114115 1.3371184875792306, 285.0813584066741 -4.648351433705539" stroke="#000000" stroke-width="1" fill="none"></path></g><g transform="translate(11.374436274897334 414) rotate(0 141.5999874790199 -2.599432240249598)"><path d="M256.7355150495661 -16.599451936635198 C265.72298081607323 -12.230738156827965, 274.4522485893492 -7.279057441838775, 284.32621874565257 -5.994928604010493 M256.72373578315654 -15.196420793275356 C262.2844579520647 -12.644053192958822, 267.82304900499145 -10.885258476162479, 285.0813584066741 -4.648351433705539" stroke="#000000" stroke-width="1" fill="none"></path></g></g><g transform="translate(93.37443627489733 382.5) rotate(0 29.5 12)"><text x="0" y="19" font-family="Cascadia, Segoe UI Emoji" font-size="20px" fill="#000000" text-anchor="start" style="white-space: pre;" direction="ltr">Right</text></g><g><g transform="translate(332.37443627489733 12) rotate(0 1.3621365617960919 174.49966063138098)"><path d="M-0.7473284471780062 0.1085262704640626 C-0.3073129841436943 58.39494239973524, 2.778625521187981 291.73253326502936, 3.4716015707701446 349.87942264564333 M1.0611853887140752 -0.880101382881403 C1.2241876810292405 57.06355096245806, 2.033785050859054 289.68819001739223, 2.246146931797266 348.2185447858274" stroke="#000000" stroke-width="1" fill="none"></path></g><g transform="translate(332.37443627489733 12) rotate(0 1.3621365617960919 174.49966063138098)"><path d="M-7.933078251332834 319.1835155281115 C-2.7845875419970607 329.54343906812255, -0.44128065808606554 341.3486711825977, 1.681433064416051 348.91545242719354 M-7.237462629117861 319.2452154670719 C-4.930064348394153 328.43750738098026, -1.294654048820444 337.7359475007437, 2.6888446067646146 347.6780131347105" stroke="#000000" stroke-width="1" fill="none"></path></g><g transform="translate(332.37443627489733 12) rotate(0 1.3621365617960919 174.49966063138098)"><path d="M12.588002366676054 319.11104032532313 C10.1583111695018 329.3699285125952, 4.923338954110572 341.2019251686037, 1.681433064416051 348.91545242719354 M13.283617988891027 319.1727402642835 C8.994945846035021 328.3408034975442, 6.034104743944906 337.66253988843863, 2.6888446067646146 347.6780131347105" stroke="#000000" stroke-width="1" fill="none"></path></g></g><g transform="translate(253.37443627489733 119.5) rotate(0 35 12)"><text x="0" y="19" font-family="Cascadia, Segoe UI Emoji" font-size="20px" fill="#000000" text-anchor="start" style="white-space: pre;" direction="ltr">Bottom</text></g><g transform="translate(46.374436274897334 489.5) rotate(0 135 12)"><text x="0" y="19" font-family="Cascadia, Segoe UI Emoji" font-size="20px" fill="#000000" text-anchor="start" style="white-space: pre;" direction="ltr">getBoundingClientRect()</text></g></svg>